<svg xmlns="http://www.w3.org/2000/svg" xmlns:xlink="http://www.w3.org/1999/xlink" width="512" height="512" viewBox="0 0 512 512">
  <defs>
    <clipPath id="clip-Favicon">
      <rect width="512" height="512"/>
    </clipPath>
  </defs>
  <g id="Favicon" clip-path="url(#clip-Favicon)">
    <rect width="512" height="512" fill="rgba(255,255,255,0)"/>
    <g id="Ellipse_3" data-name="Ellipse 3" fill="#11346f" stroke="#707070" stroke-width="1">
      <circle cx="256" cy="256" r="256" stroke="none"/>
      <circle cx="256" cy="256" r="255.5" fill="none"/>
    </g>
    <g id="Gruppe_45" data-name="Gruppe 45" transform="translate(49.367 37.604)">
      <g id="Gruppe_9" data-name="Gruppe 9" transform="translate(0 61)">
        <path id="Pfad_398" data-name="Pfad 398" d="M411.487,41.436c-25.714-27.164-117.733-30.1-156.089-30.1-18.326,0-30.89.622-36.744.983-6.7.417-164.432,10.556-199.663,52.652-16.912,20.2-7.247,63.717-.191,95.5,2.086,9.4,21.31,92.811,53.613,127.547,22.54,24.215,68.991,38.115,127.448,38.115,10.98,0,22.321-.516,33.7-1.527,70.207-6.2,135.508-29.207,153.784-42.739,16.148-11.935,21.868-48.028,26.054-74.372.693-4.391,1.329-8.435,1.958-11.928,2.828-15.717,17.386-131.7-3.867-154.131" transform="translate(-9.58 -11.338)" fill="#f2f2f2"/>
      </g>
      <g id="Gruppe_10" data-name="Gruppe 10" transform="translate(79.951 143.264)">
        <path id="Pfad_402" data-name="Pfad 402" d="M96.5,19.76q40.232,0,51.808,13.371T159.893,92.9q0,50.724-11.631,63.929t-56.3,13.2q-40.256,0-52.029-13.039-11.8-13.055-11.8-57.393,0-52.789,11.583-66.3Q51.293,19.76,96.5,19.76M94.334,43.781q-28.222,0-32.993,7.247t-4.763,50.194q0,31.806,5.57,38.294T94.983,146q26.062,0,31.268-7.295,5.175-7.311,5.19-44.307,0-37.1-4.921-43.864-4.937-6.741-32.186-6.757" transform="translate(-28.127 -19.76)" fill="#11346f"/>
        <path id="Pfad_403" data-name="Pfad 403" d="M98.468,60.377V185.1H69.948V60.377H26.581V34.837h116.8V60.377Z" transform="translate(128.203 -34.837)" fill="#11346f"/>
      </g>
    </g>
  </g>
</svg>
