<svg xmlns="http://www.w3.org/2000/svg" xmlns:xlink="http://www.w3.org/1999/xlink" width="512" height="414" viewBox="0 0 512 414">
  <defs>
    <clipPath id="clip-path">
      <rect id="Rechteck_9" data-name="Rechteck 9" width="729.942" height="556.023" fill="#f2f2f2"/>
    </clipPath>
    <clipPath id="clip-path-2">
      <rect id="Rechteck_10" data-name="Rechteck 10" width="729.942" height="556.031" fill="#f2f2f2"/>
    </clipPath>
    <clipPath id="clip-Logo">
      <rect width="512" height="414"/>
    </clipPath>
  </defs>
  <g id="Logo" clip-path="url(#clip-Logo)">
    <rect width="512" height="414" fill="rgba(255,255,255,0)"/>
    <g id="Gruppe_8" data-name="Gruppe 8" transform="translate(-69.011 -71.016)">
      <g id="Gruppe_5" data-name="Gruppe 5" transform="translate(0 0.008)">
        <g id="Gruppe_4" data-name="Gruppe 4" clip-path="url(#clip-path)">
          <path id="Pfad_1" data-name="Pfad 1" d="M484.069,46.871c-30.358-32.069-139-35.533-184.278-35.533-21.636,0-36.468.735-43.38,1.16-7.9.492-194.128,12.462-235.721,62.161C.724,98.506,12.134,149.883,20.465,187.4c2.462,11.093,25.158,109.572,63.3,150.581,26.61,28.589,81.451,45,150.464,45,12.963,0,26.352-.609,39.782-1.8,82.886-7.32,159.98-34.482,181.557-50.458,19.065-14.09,25.818-56.7,30.759-87.8.818-5.184,1.569-9.958,2.312-14.082,3.339-18.555,20.525-155.481-4.566-181.966m-.276,180.547c-.743,4.174-1.511,9-2.329,14.248-4.449,28.088-11.177,66.509-27.629,78.671-20.851,15.425-99.071,41.719-180.53,48.93-13.205,1.169-26.352,1.761-39.081,1.761-65.825,0-107.736-15.876-132.476-42.47C71.941,296.524,49.162,225.156,40.4,185.683c-7.971-35.9-18.881-85.065-1.444-105.9C78.368,32.69,255,20.578,256.9,20.461c11.619-.735,27.253-1.152,42.887-1.152,34.523,0,152.476,2.387,181.5,33.038,19.649,20.742,8.581,141.324,2.5,175.071" transform="translate(70.385 83.293)" fill="#f2f2f2"/>
        </g>
      </g>
      <g id="Gruppe_7" data-name="Gruppe 7">
        <g id="Gruppe_6" data-name="Gruppe 6" clip-path="url(#clip-path-2)">
          <path id="Pfad_2" data-name="Pfad 2" d="M64.195,19.76q21.222,0,27.328,7.053t6.11,31.527q0,26.757-6.135,33.722T61.8,99.024q-21.235,0-27.445-6.878T28.127,61.871q0-27.846,6.11-34.974T64.195,19.76M63.051,32.431q-14.887,0-17.4,3.823T43.135,62.731q0,16.778,2.938,20.2t17.32,3.422q13.748,0,16.494-3.848,2.73-3.856,2.738-23.372,0-19.57-2.6-23.138T63.051,32.431" transform="translate(206.651 145.178)" fill="#f2f2f2"/>
          <path id="Pfad_3" data-name="Pfad 3" d="M37.84,23.241h13.3l-.517,8.1.284.058q4.745-8.84,17.637-8.84,11.92,0,16.41,5.9,4.47,5.91,4.474,21.544,0,16.314-4.457,22.362T68.482,78.416q-12.834,0-16.778-8.556h-.225v31.327H37.84Zm25.734,9.641q-7.475,0-9.758,3.364T51.538,50.511q0,10.617,2.454,14.1t9.983,3.481q7.65,0,9.925-3.314T76.186,50.57q0-11.181-2.312-14.432t-10.3-3.255" transform="translate(278.013 165.728)" fill="#f2f2f2"/>
          <path id="Pfad_4" data-name="Pfad 4" d="M86.163,33.387v9.925h-21v27.4q0,7.588,5.768,7.587,6.335,0,6.335-9.19V66.942H88.391V69.68c0,2.5-.075,4.658-.234,6.444q-1.089,12.5-18.6,12.5-17.466,0-17.462-16.035V43.311H45.02V33.387H52.1V21.175H65.161V33.387Z" transform="translate(330.765 155.574)" fill="#f2f2f2"/>
          <path id="Pfad_5" data-name="Pfad 5" d="M64.505,30.743H51.442v-10.9H64.505Zm0,66.994H51.442V43.189H64.505Z" transform="translate(377.948 145.78)" fill="#f2f2f2"/>
          <path id="Pfad_6" data-name="Pfad 6" d="M67.762,19.843V64.407h3.364L85.85,43.181h15.175l-19,25.676,22.879,28.872H88.7L70.959,73.539h-3.2v24.19H54.7V19.843Z" transform="translate(401.875 145.784)" fill="#f2f2f2"/>
          <path id="Pfad_7" data-name="Pfad 7" d="M63.842,48.075v64.648H49.06V48.075H26.581V34.837H87.122V48.075Z" transform="translate(195.292 255.947)" fill="#f2f2f2"/>
          <path id="Pfad_8" data-name="Pfad 8" d="M48.772,53.992H35.416q0-9.816,4.566-13.122T58.07,37.557q14.724,0,19.916,4.057t5.192,15.459V92.739H70.115l.626-7.479L70.4,85.2Q66.63,93.365,53,93.365q-19.808,0-19.8-16.836,0-17,20.258-17,13.522,0,16.427,6.219h.234V56.906q0-6.4-2.229-8.481t-9.132-2.078q-9.979,0-9.983,7.646M57.5,68.316q-11.068,0-11.068,7.646,0,5.309,2.279,6.961T58.3,84.576q11.92,0,11.92-8.047,0-8.214-12.721-8.213" transform="translate(243.893 275.934)" fill="#f2f2f2"/>
          <path id="Pfad_9" data-name="Pfad 9" d="M77.164,71.906H90.177v1.886l-.8,8.272q-2.4,11.294-23.4,11.294-15.4,0-20.484-5.567Q40.412,82.244,40.42,65.4q0-16.44,5.075-22.145t19.741-5.7q14.148,0,19.173,4.132t5.025,15.726H76.479q0-9.528-11.01-9.532c-5.217,0-8.481,1.01-9.816,3.022s-1.995,6.961-1.995,14.841q0,11.406,2.2,14.349T66.6,83.033q6.736,0,8.648-2.02t1.911-9.107" transform="translate(296.968 275.941)" fill="#f2f2f2"/>
          <path id="Pfad_10" data-name="Pfad 10" d="M60.565,34.837V79.4h3.364L78.653,58.175H93.828l-19,25.676,22.879,28.872h-16.2L63.762,88.533h-3.2v24.19H47.5V34.837Z" transform="translate(348.996 255.947)" fill="#f2f2f2"/>
        </g>
      </g>
    </g>
  </g>
</svg>
